<svg xmlns="http://www.w3.org/2000/svg" viewBox="0 0 1200 720" role="img" aria-label="Бетонный завод и миксер">
  <defs>
    <linearGradient id="sky" x1="0" x2="0" y1="0" y2="1">
      <stop offset="0" stop-color="#eef5fb"/>
      <stop offset="1" stop-color="#d8e5ef"/>
    </linearGradient>
  </defs>
  <rect width="1200" height="720" fill="url(#sky)"/>
  <rect y="500" width="1200" height="220" fill="#d3d9df"/>
  <rect x="88" y="378" width="1024" height="42" fill="#9aa6af"/>
  <rect x="138" y="250" width="80" height="270" fill="#c7d0d8"/>
  <rect x="238" y="210" width="72" height="310" fill="#b4c0ca"/>
  <rect x="335" y="288" width="210" height="232" fill="#8fa1af"/>
  <rect x="590" y="335" width="230" height="185" fill="#aab6bf"/>
  <rect x="840" y="288" width="96" height="232" fill="#c0c9d1"/>
  <path d="M130 250h88l-44-80zM238 210h72l-36-74zM840 288h96l-48-98z" fill="#0f2f57"/>
  <rect x="138" y="410" width="798" height="15" fill="#0f2f57"/>
  <g transform="translate(650 480)">
    <rect x="0" y="56" width="292" height="62" rx="14" fill="#f2b705"/>
    <rect x="42" y="16" width="136" height="86" rx="42" fill="#ffffff" stroke="#0f2f57" stroke-width="12"/>
    <rect x="190" y="26" width="72" height="48" rx="8" fill="#0f2f57"/>
    <circle cx="58" cy="124" r="24" fill="#0f2f57"/>
    <circle cx="234" cy="124" r="24" fill="#0f2f57"/>
  </g>
  <rect x="0" y="610" width="1200" height="110" fill="#0f2f57" opacity=".18"/>
</svg>
